<svg id="Layer_2" data-name="Layer 2" xmlns="http://www.w3.org/2000/svg" width="257.158" height="27.646" viewBox="0 0 257.158 27.646">
  <g id="Layer_1" data-name="Layer 1">
    <path id="Path_1" data-name="Path 1" d="M51.373,3.782A6.04,6.04,0,0,0,45.825.15H3.018A3.018,3.018,0,0,0,0,3.168v21.45H0a3.018,3.018,0,0,0,3.013,3.018h56.4a1.516,1.516,0,0,0,1.38-2.121Z" transform="translate(0 -0.077)" fill="#de003b"/>
    <path id="Path_2" data-name="Path 2" d="M1.65,50.36v0Z" transform="translate(-0.846 -25.809)"/>
    <path id="Path_3" data-name="Path 3" d="M7.83,56.55Z" transform="translate(-4.013 -28.982)"/>
    <path id="Path_4" data-name="Path 4" d="M28.016,17.07h-2.15a7.03,7.03,0,0,0-1.95.244,2.624,2.624,0,0,0-1.541,2.745c0,1.911,1.082,2.813,3.378,2.813H28Zm-2.486,7.473c-2.243,0-3.208-.224-4.246-.975A4.251,4.251,0,0,1,19.572,19.9a4.412,4.412,0,0,1,1.667-3.515,4.241,4.241,0,0,1,1.258-.639,8.448,8.448,0,0,1,2.984-.336h2.535V12h2.73V24.543Z" transform="translate(-10.027 -6.15)" fill="#fff"/>
    <path id="Path_5" data-name="Path 5" d="M51.607,18.924a6.338,6.338,0,0,1,3.208.712,2.864,2.864,0,0,1,1.15,2.662v5.792H53.211v-5.8A1.765,1.765,0,0,0,52.855,21a2.277,2.277,0,0,0-1.463-.331H49.174v7.439H46.42V18.924Z" transform="translate(-23.79 -9.695)" fill="#fff"/>
    <path id="Path_6" data-name="Path 6" d="M72.65,26.533H74.8a7.166,7.166,0,0,0,1.95-.244,2.627,2.627,0,0,0,1.545-2.745c0-1.916-1.087-2.813-3.378-2.813H72.67Zm2.481-7.473c2.247,0,3.213.224,4.251.975A4.261,4.261,0,0,1,81.094,23.7a4.436,4.436,0,0,1-1.662,3.549,4.388,4.388,0,0,1-1.258.639,8.458,8.458,0,0,1-2.993.336H72.65v3.413H69.92V19.06Z" transform="translate(-35.834 -9.768)" fill="#fff"/>
    <path id="Path_7" data-name="Path 7" d="M135,26.514,124.7,2.719a1.37,1.37,0,0,1-.156-.687A1.55,1.55,0,0,1,126.07.569a1.692,1.692,0,0,1,1.565,1.146L136.9,23.862,146.16,1.637A1.784,1.784,0,0,1,147.642.55,1.463,1.463,0,0,1,149.1,2.013a1.541,1.541,0,0,1-.112.609l-10.35,23.888a1.838,1.838,0,0,1-1.755,1.258h-.151A1.813,1.813,0,0,1,135,26.514Z" transform="translate(-63.826 -0.282)" fill="#fff"/>
    <path id="Path_8" data-name="Path 8" d="M186,2a1.511,1.511,0,1,1,3.018,0V26.045a1.511,1.511,0,1,1-3.018,0Z" transform="translate(-95.322 -0.207)" fill="#fff"/>
    <path id="Path_9" data-name="Path 9" d="M205.58,24.039a1.355,1.355,0,0,1-.58-1.146,1.463,1.463,0,0,1,1.463-1.492,1.341,1.341,0,0,1,.917.346,12.188,12.188,0,0,0,8.434,3.174c3.588,0,5.957-1.911,5.957-4.544V20.3c0-2.481-1.336-3.9-6.952-5.08-6.147-1.336-8.97-3.32-8.97-7.712V7.435c0-4.2,3.7-7.313,8.775-7.313a13.65,13.65,0,0,1,8.517,2.632,1.56,1.56,0,0,1,.648,1.224,1.462,1.462,0,0,1-1.463,1.463,1.414,1.414,0,0,1-.878-.263,11.178,11.178,0,0,0-6.913-2.33c-3.471,0-5.689,1.906-5.689,4.314V7.24c0,2.516,1.375,3.929,7.254,5.192,5.962,1.277,8.721,3.471,8.721,7.556v.058c0,4.583-3.817,7.561-9.126,7.561a15.624,15.624,0,0,1-10.116-3.569Z" transform="translate(-105.062 -0.059)" fill="#fff"/>
    <path id="Path_10" data-name="Path 10" d="M258.867,2a1.511,1.511,0,1,1,3.018,0V26.045a1.511,1.511,0,1,1-3.018,0Z" transform="translate(-132.668 -0.207)" fill="#fff"/>
    <path id="Path_11" data-name="Path 11" d="M278.34,13.9v-.078a13.622,13.622,0,1,1,27.242-.073v.073a13.622,13.622,0,1,1-27.242.078Zm24.131,0v-.078c0-6.069-4.431-11.032-10.54-11.032S281.47,7.664,281.47,13.748v.073c0,6.074,4.431,11.037,10.54,11.037S302.471,19.988,302.471,13.9Z" transform="translate(-142.649)" fill="#fff"/>
    <path id="Path_12" data-name="Path 12" d="M343.84,24.034a1.36,1.36,0,0,1-.57-1.146,1.463,1.463,0,0,1,1.463-1.492,1.35,1.35,0,0,1,.917.346,12.187,12.187,0,0,0,8.429,3.174c3.588,0,5.952-1.911,5.952-4.544v-.078c0-2.481-1.336-3.9-6.947-5.08-6.147-1.341-8.97-3.325-8.97-7.717V7.425c0-4.2,3.705-7.313,8.775-7.313A13.65,13.65,0,0,1,361.4,2.745a1.545,1.545,0,0,1,.648,1.224,1.463,1.463,0,0,1-1.462,1.463,1.4,1.4,0,0,1-.878-.263,11.179,11.179,0,0,0-6.913-2.33c-3.476,0-5.689,1.906-5.689,4.314V7.23c0,2.516,1.375,3.929,7.254,5.192,5.957,1.3,8.707,3.471,8.707,7.556v.063c0,4.583-3.817,7.561-9.126,7.561a15.639,15.639,0,0,1-10.1-3.569Z" transform="translate(-175.925 -0.054)" fill="#fff"/>
    <path id="Path_13" data-name="Path 13" d="M397.13,2.1a1.506,1.506,0,0,1,3.013,0V26.14a1.506,1.506,0,0,1-3.013,0Z" transform="translate(-203.529 -0.302)" fill="#fff"/>
    <path id="Path_14" data-name="Path 14" d="M416.78,13.9v-.078C416.78,6.508,422.143,0,430.181,0a14.221,14.221,0,0,1,9.131,2.867,1.526,1.526,0,0,1-.878,2.745,1.589,1.589,0,0,1-.975-.38,11.325,11.325,0,0,0-7.41-2.437c-5.9,0-10.14,5.007-10.14,10.954v.073c0,6.377,4.085,11.115,10.579,11.115a12.578,12.578,0,0,0,7.712-2.676V15.6h-7.176a1.355,1.355,0,1,1,0-2.711h8.59a1.526,1.526,0,0,1,1.492,1.531v8.146a2.155,2.155,0,0,1-1.033,1.833,16.283,16.283,0,0,1-9.7,3.247C421.972,27.646,416.78,21.533,416.78,13.9Z" transform="translate(-213.599)" fill="#fff"/>
    <path id="Path_15" data-name="Path 15" d="M481.155,2.141A1.516,1.516,0,0,1,482.617.678h.424a1.838,1.838,0,0,1,1.526.878l16.253,20.69V2.063a1.463,1.463,0,0,1,2.925,0V26.194a1.355,1.355,0,0,1-1.375,1.414h-.156a2.062,2.062,0,0,1-1.565-.916L484.075,5.5V26.194a1.462,1.462,0,1,1-2.925,0Z" transform="translate(-246.589 -0.307)" fill="#fff"/>
  </g>
</svg>
