<?xml version="1.0" encoding="UTF-8"?><svg id="Layer_1" xmlns="http://www.w3.org/2000/svg" viewBox="0 0 120.37 35.15"><defs><style>.cls-1{fill:#fff;}</style></defs><path id="Path_2216" class="cls-1" d="m117.49,6.91c.93.62,1.67,1.48,2.12,2.5.52,1.17.78,2.44.75,3.73.03,1.27-.23,2.54-.75,3.7-.92,2.07-3.01,3.38-5.28,3.31-.97.02-1.93-.22-2.78-.7-.79-.46-1.42-1.15-1.8-1.98v6.56c.02.3-.09.59-.29.8-.22.21-.52.31-.82.29-.31.02-.61-.09-.84-.31-.21-.21-.32-.49-.31-.78V7.19c-.01-.3.1-.59.31-.81.23-.21.53-.32.84-.31.31-.02.6.09.82.31.2.22.31.51.29.81v1.51c.38-.83,1.01-1.52,1.8-1.98.85-.48,1.81-.72,2.78-.7,1.12-.02,2.22.29,3.16.89m-.53,10.03c.79-1.1,1.18-2.45,1.09-3.8.08-1.36-.3-2.71-1.09-3.83-1.52-1.7-4.13-1.85-5.83-.34-.1.09-.21.19-.3.3-.78,1.12-1.16,2.47-1.07,3.83-.09,1.36.29,2.72,1.07,3.84.74.92,1.88,1.42,3.06,1.35,1.18.06,2.32-.43,3.07-1.34"/><path id="Path_2217" class="cls-1" d="m5.89,2.87c-.55.7-.82,1.58-.75,2.47v.89h3.1c.27-.02.53.07.73.25.17.18.26.42.25.67.02.24-.08.48-.25.64-.21.16-.46.24-.73.22h-3.1v10.84c.02.31-.1.61-.32.82-.22.2-.51.3-.8.29-.3.01-.6-.09-.82-.29-.22-.21-.34-.52-.32-.82v-10.84h-1.87c-.27.02-.53-.07-.74-.24C.09,7.62,0,7.39,0,7.15c-.01-.25.09-.49.26-.67.2-.18.47-.27.74-.25h1.87v-.5c-.08-1.43.36-2.84,1.26-3.96C5.07.77,6.37.19,7.74.17l.73-.06c.36-.06.72,0,1.05.14.23.16.35.43.32.7,0,.54-.33.85-.98.92l-.73.06c-.84.01-1.64.35-2.23.94"/><path id="Path_2218" class="cls-1" d="m22.81,19.16c-.98-.58-1.77-1.44-2.26-2.47-.55-1.16-.83-2.44-.8-3.73-.03-1.29.25-2.56.8-3.73.49-1.03,1.28-1.89,2.26-2.47,1.03-.59,2.21-.89,3.39-.86,1.19-.02,2.37.27,3.41.86.99.58,1.78,1.44,2.28,2.47.55,1.16.83,2.44.8,3.73.03,1.29-.25,2.56-.8,3.73-.5,1.03-1.29,1.89-2.28,2.47-1.04.59-2.21.89-3.41.86-1.19.02-2.36-.27-3.39-.86m6.48-2.33c.79-1.13,1.17-2.49,1.08-3.87.09-1.37-.3-2.72-1.09-3.84-1.55-1.7-4.18-1.82-5.88-.27-.09.09-.18.17-.27.27-.79,1.12-1.18,2.47-1.09,3.84-.09,1.37.29,2.73,1.07,3.85,1.6,1.71,4.28,1.8,5.99.2.06-.06.12-.12.18-.18"/><path id="Path_2219" class="cls-1" d="m55.89,6.01c.28,0,.54.1.75.28.22.17.34.43.33.7,0,.14-.03.29-.08.42l-4.63,11.73c-.1.23-.27.43-.49.57-.21.14-.46.21-.71.21-.24,0-.48-.07-.68-.21-.21-.14-.38-.34-.49-.57l-3.85-9.8-3.83,9.8c-.09.24-.26.44-.47.57-.62.4-1.44.22-1.83-.4-.04-.05-.07-.11-.09-.17l-4.64-11.7c-.05-.12-.08-.26-.08-.39,0-.3.14-.58.38-.75.23-.2.52-.31.82-.31.43-.01.82.26.95.67l3.82,10.31,3.94-10.22c.1-.23.26-.42.46-.56.18-.13.4-.2.63-.2.23,0,.46.07.66.2.2.14.35.33.43.56l3.93,10.19,3.85-10.25c.12-.4.5-.68.92-.67"/><path id="Path_2220" class="cls-1" d="m74.07,19.68c-.22-.21-.34-.52-.32-.82V1.12c-.02-.31.1-.61.32-.82.23-.2.52-.3.82-.29.29-.01.58.1.8.29.22.21.34.52.32.82v17.74c.02.31-.1.61-.32.82-.22.2-.51.3-.8.29-.3.01-.6-.09-.82-.29"/><path id="Path_2221" class="cls-1" d="m103.57,9.53c-.52-.92-1.24-1.72-2.11-2.32-1.93-1.31-4.06-1.69-5.86-.72-.45.22-.63.75-.42,1.2.05.1.12.19.2.27.33.37.52.4.82.31.37-.1.68-.28.94-.36,1.18-.36,1.86-.02,3.05.89,1.18.96,1.91,2.37,2.02,3.88.24,1.96-.56,3.9-2.11,5.12-1.63,1.17-3.87.98-5.26-.46-.67-.91-1.05-1.99-1.08-3.12-.03-1.12-.15-2.23-.35-3.33-.49-1.94-1.85-3.55-3.68-4.36-2.26-.94-4.84-.57-6.75.96-.75.71-1.34,1.57-1.75,2.52-.36.78-.59,1.6-.69,2.45-.02.18-.03.37-.04.55-.1,2.53,1.11,4.93,3.2,6.36,1.53,1.24,3.64,1.48,5.41.62.43-.13.67-.58.55-1.01-.05-.34-.24-.78-.58-.83-.94-.16-.98.38-2.31.34-.69-.05-1.36-.3-1.91-.72-1.34-1.05-2.13-2.67-2.12-4.37-.09-1.81.69-3.54,2.1-4.68,1.46-1.1,3.49-1.07,4.92.08.89.95,1.42,2.19,1.49,3.49.07,1.29.25,2.57.54,3.83.89,2.66,3.4,4.44,6.21,4.41,1.71-.08,3.33-.81,4.51-2.05,1.17-1.24,1.89-2.85,2.03-4.55.12-1.53-.21-3.06-.97-4.4"/><path class="cls-1" d="m13.3,19.68c-.22-.21-.34-.52-.32-.82V1.12c-.02-.31.1-.61.32-.82.23-.2.53-.31.83-.29.29,0,.58.1.8.29.22.21.34.52.32.82v17.74c.02.31-.1.61-.32.82-.22.2-.51.3-.8.29-.3.01-.6-.09-.82-.29"/><path class="cls-1" d="m13.53,29.07c.4,0,.75.04,1.06.13.31.08.55.2.72.35s.26.32.26.52c0,.12-.04.24-.11.35s-.18.16-.33.16c-.11,0-.2-.02-.27-.05-.07-.03-.13-.08-.19-.13s-.13-.1-.21-.15c-.08-.05-.2-.09-.36-.12-.16-.03-.3-.04-.42-.04-.39,0-.72.09-1.01.26-.28.18-.5.41-.66.71s-.24.64-.24,1.02.08.72.24,1.02.37.54.65.71.6.26.96.26c.21,0,.39-.02.53-.05.14-.03.26-.07.36-.13.12-.07.21-.13.29-.2.08-.07.19-.1.32-.1.16,0,.28.05.37.15.08.1.13.22.13.37,0,.16-.1.32-.29.47s-.45.27-.78.37-.68.14-1.08.14c-.56,0-1.06-.13-1.48-.4-.42-.26-.75-.62-.98-1.08-.23-.46-.35-.97-.35-1.54s.12-1.09.36-1.55c.24-.45.58-.81,1.01-1.07.43-.26.93-.4,1.49-.4Z"/><path class="cls-1" d="m18.14,28.43c-.21,0-.37-.04-.46-.12-.1-.08-.14-.21-.14-.39v-.18c0-.18.05-.31.15-.39s.26-.11.46-.11c.22,0,.38.04.47.12.1.08.14.2.14.38v.18c0,.19-.05.32-.15.4-.1.07-.26.11-.48.11Zm.56,6c0,.16-.05.3-.15.4-.1.11-.23.16-.4.16s-.29-.05-.4-.16c-.1-.11-.15-.24-.15-.4v-4.71c0-.16.05-.29.16-.4.11-.11.24-.16.39-.16s.29.05.4.16.15.24.15.4v4.71Z"/><path class="cls-1" d="m21.72,34.99c-.16,0-.29-.05-.4-.16-.11-.11-.16-.24-.16-.4v-4.66c0-.16.05-.29.16-.4s.24-.16.4-.16.28.05.39.16.16.24.16.4v1.23l-.11-.47c.06-.21.15-.4.27-.57.12-.18.27-.33.43-.46.17-.13.36-.23.57-.31.21-.07.43-.11.65-.11.19,0,.36.05.5.15.14.1.21.23.21.39,0,.2-.05.34-.15.43s-.22.14-.34.14c-.11,0-.22-.02-.32-.07-.1-.05-.22-.07-.36-.07-.15,0-.31.04-.47.12-.16.08-.31.2-.44.36-.13.16-.24.34-.31.56-.08.21-.12.45-.12.71v2.64c0,.16-.05.3-.16.4-.11.11-.24.16-.39.16Z"/><path class="cls-1" d="m29.08,29.07c.4,0,.75.04,1.06.13.31.08.55.2.72.35s.26.32.26.52c0,.12-.04.24-.11.35s-.18.16-.33.16c-.11,0-.2-.02-.27-.05-.07-.03-.13-.08-.19-.13s-.13-.1-.21-.15c-.08-.05-.2-.09-.36-.12-.16-.03-.3-.04-.42-.04-.39,0-.72.09-1.01.26-.28.18-.5.41-.66.71s-.24.64-.24,1.02.08.72.24,1.02.37.54.65.71.6.26.96.26c.21,0,.39-.02.53-.05.14-.03.26-.07.36-.13.12-.07.21-.13.29-.2.08-.07.19-.1.32-.1.16,0,.28.05.37.15.08.1.13.22.13.37,0,.16-.1.32-.29.47s-.45.27-.78.37-.68.14-1.08.14c-.56,0-1.06-.13-1.48-.4-.42-.26-.75-.62-.98-1.08-.23-.46-.35-.97-.35-1.54s.12-1.09.36-1.55c.24-.45.58-.81,1.01-1.07.43-.26.93-.4,1.49-.4Z"/><path class="cls-1" d="m37.53,29.2c.15,0,.28.05.39.16.11.11.16.24.16.4v2.89c0,.76-.21,1.36-.64,1.79-.43.43-1.03.64-1.8.64s-1.38-.21-1.8-.64c-.42-.43-.63-1.02-.63-1.79v-2.89c0-.16.05-.29.16-.4s.24-.16.4-.16.28.05.39.16.16.24.16.4v2.89c0,.48.11.83.34,1.07.22.23.55.35.98.35s.77-.12,1-.35c.22-.23.34-.59.34-1.07v-2.89c0-.16.05-.29.16-.4.11-.11.24-.16.4-.16Z"/><path class="cls-1" d="m41.79,34.42c0,.16-.05.3-.16.4-.11.11-.24.16-.39.16s-.28-.05-.39-.16c-.11-.11-.16-.24-.16-.4v-7.02c0-.16.06-.29.17-.4s.24-.16.4-.16.29.05.39.16.15.24.15.4v7.02Z"/><path class="cls-1" d="m49.16,29.11c.16,0,.29.05.4.16.1.11.15.24.15.4v4.75c0,.16-.05.3-.15.4-.1.11-.23.16-.4.16s-.29-.05-.4-.16c-.1-.11-.15-.24-.15-.4v-.79l.23.04c0,.12-.05.27-.16.43-.11.17-.25.32-.43.47-.18.15-.4.27-.65.37-.25.1-.52.15-.8.15-.51,0-.96-.13-1.36-.39-.4-.26-.72-.62-.96-1.07-.23-.45-.35-.97-.35-1.55s.12-1.12.35-1.57c.23-.45.55-.8.95-1.06.4-.26.84-.38,1.33-.38.31,0,.61.05.87.15.27.1.5.23.7.4.2.16.35.33.46.51.11.18.16.35.16.51l-.34.03v-1c0-.15.05-.29.15-.4.1-.11.23-.17.4-.17Zm-2.24,4.97c.34,0,.65-.09.91-.26.26-.18.47-.42.62-.72.15-.3.22-.64.22-1.02s-.07-.71-.22-1.02-.35-.54-.62-.72c-.26-.17-.57-.26-.91-.26s-.64.09-.9.26c-.26.17-.47.41-.62.71s-.23.64-.23,1.02.08.71.23,1.02c.15.3.36.54.62.72s.56.26.9.26Z"/><path class="cls-1" d="m52.79,34.99c-.16,0-.29-.05-.4-.16-.11-.11-.16-.24-.16-.4v-4.66c0-.16.05-.29.16-.4s.24-.16.4-.16.28.05.39.16.16.24.16.4v1.23l-.11-.47c.06-.21.15-.4.27-.57.12-.18.27-.33.43-.46.17-.13.36-.23.57-.31.21-.07.43-.11.65-.11.19,0,.36.05.5.15.14.1.21.23.21.39,0,.2-.05.34-.15.43s-.22.14-.34.14c-.11,0-.22-.02-.32-.07-.1-.05-.22-.07-.36-.07-.15,0-.31.04-.47.12-.16.08-.31.2-.44.36-.13.16-.24.34-.31.56-.08.21-.12.45-.12.71v2.64c0,.16-.05.3-.16.4-.11.11-.24.16-.39.16Z"/><path class="cls-1" d="m61.53,34.08c-.07-.1-.1-.22-.09-.36s.08-.25.23-.35c.1-.07.21-.09.32-.08.11.01.22.07.32.17.21.23.43.41.69.54.25.13.56.2.92.2.15,0,.3-.03.45-.07.15-.04.29-.11.4-.22.11-.11.17-.26.17-.47,0-.18-.06-.33-.18-.43-.12-.11-.27-.2-.46-.27-.19-.07-.4-.14-.63-.2-.23-.07-.47-.14-.7-.22-.23-.08-.45-.19-.64-.31-.19-.13-.35-.29-.47-.5-.12-.21-.18-.46-.18-.76,0-.34.1-.64.29-.89.19-.25.44-.44.76-.58s.65-.21,1.01-.21c.22,0,.45.03.68.08.23.06.46.14.68.26.22.12.41.27.57.46.07.1.12.21.13.34.01.13-.05.25-.18.36-.09.07-.19.1-.32.09-.12-.01-.23-.05-.31-.13-.14-.18-.32-.31-.54-.41-.22-.1-.47-.14-.75-.14-.14,0-.28.02-.43.06s-.28.11-.38.21-.15.25-.15.45c0,.18.06.33.18.44.12.11.28.2.48.27.2.07.41.14.65.2.23.06.45.13.68.21.22.08.43.19.6.31.18.13.33.29.44.49.11.2.17.46.17.76,0,.36-.1.67-.31.92s-.47.45-.79.58c-.32.13-.65.2-1.01.2-.42,0-.83-.08-1.25-.23-.41-.15-.76-.41-1.05-.79Z"/><path class="cls-1" d="m71.04,29.1c.51,0,.9.11,1.18.32s.48.51.59.87c.11.37.17.77.17,1.21v2.92c0,.16-.05.3-.16.4-.11.11-.24.16-.39.16s-.29-.05-.4-.16c-.11-.11-.16-.24-.16-.4v-2.92c0-.26-.03-.49-.1-.7-.07-.21-.19-.38-.36-.51-.17-.13-.41-.19-.71-.19-.29,0-.54.06-.76.19-.22.13-.4.3-.52.51-.12.21-.18.44-.18.7v2.92c0,.16-.05.3-.16.4-.11.11-.24.16-.39.16s-.29-.05-.4-.16c-.11-.11-.16-.24-.16-.4v-7.02c0-.16.05-.29.16-.4s.24-.16.4-.16.28.05.39.16.16.24.16.4v3l-.2.11c.05-.16.14-.33.26-.5.12-.17.27-.32.45-.46s.38-.25.6-.34c.22-.08.45-.13.7-.13Z"/><path class="cls-1" d="m81.04,32.09c0,.59-.13,1.11-.39,1.56-.26.45-.6.8-1.04,1.06-.44.26-.93.38-1.48.38s-1.05-.13-1.49-.38c-.44-.26-.79-.61-1.05-1.06-.26-.45-.39-.97-.39-1.56s.13-1.12.39-1.57c.26-.45.61-.81,1.05-1.07.44-.26.93-.39,1.49-.39s1.04.13,1.48.39c.44.26.79.62,1.04,1.07s.39.97.39,1.57Zm-1.1,0c0-.4-.08-.75-.24-1.05-.16-.3-.38-.53-.65-.7-.27-.17-.58-.25-.92-.25s-.65.08-.92.25c-.28.17-.5.4-.66.7-.16.3-.24.65-.24,1.05s.08.73.24,1.03c.16.3.38.54.66.7.28.17.59.25.92.25s.64-.08.92-.25c.28-.17.49-.4.65-.7s.24-.65.24-1.03Z"/><path class="cls-1" d="m90,29.14c.15,0,.27.05.38.16.11.11.16.24.16.41,0,.04,0,.07-.01.11,0,.04-.02.07-.03.11l-1.68,4.7c-.04.12-.12.22-.23.28-.11.06-.23.09-.35.07-.21-.01-.36-.13-.47-.35l-1.23-3.3.25.02-1.14,3.28c-.1.22-.26.34-.47.35-.11.01-.22,0-.34-.07-.11-.06-.19-.16-.24-.28l-1.71-4.7c-.02-.07-.03-.15-.03-.22,0-.15.05-.28.15-.4.1-.12.23-.18.4-.18.12,0,.22.03.31.09.09.06.16.15.19.26l1.41,3.97-.25-.02,1.14-3c.09-.23.26-.34.51-.34.13,0,.23.03.31.09.07.06.13.14.18.25l1.17,3.01-.31.03,1.42-3.99c.08-.23.26-.35.53-.35Z"/><path class="cls-1" d="m95.35,35.1c-.61,0-1.14-.13-1.58-.38s-.79-.6-1.04-1.04c-.25-.44-.37-.95-.37-1.52,0-.65.13-1.2.39-1.66.26-.46.6-.81,1.02-1.06s.86-.37,1.33-.37c.36,0,.7.07,1.02.21.32.14.61.34.86.59s.45.55.6.89c.15.34.22.71.23,1.12,0,.15-.07.27-.18.36s-.24.14-.38.14h-4.28l-.26-.93h4.14l-.21.2v-.27c-.02-.26-.11-.48-.26-.67-.15-.19-.34-.34-.57-.45-.22-.11-.46-.17-.71-.17-.22,0-.43.03-.63.1-.2.07-.38.18-.54.34-.16.15-.28.36-.37.61-.09.25-.14.57-.14.94,0,.4.08.76.25,1.06.17.3.4.53.68.7s.6.25.95.25c.27,0,.49-.03.67-.08.17-.06.32-.12.44-.2s.23-.16.31-.23c.11-.07.22-.1.32-.1.14,0,.25.05.34.14s.13.2.13.32c0,.16-.08.31-.24.44-.2.19-.47.36-.82.51-.35.15-.71.22-1.09.22Z"/><path class="cls-1" d="m100.59,34.99c-.16,0-.3-.05-.4-.16-.11-.11-.16-.24-.16-.4v-4.66c0-.16.05-.29.16-.4.11-.11.24-.16.4-.16.15,0,.28.05.39.16.11.11.16.24.16.4v1.23l-.11-.47c.06-.21.15-.4.27-.57.12-.18.27-.33.43-.46s.36-.23.57-.31c.21-.07.43-.11.65-.11.19,0,.36.05.5.15.14.1.21.23.21.39,0,.2-.05.34-.15.43-.1.09-.22.14-.34.14-.11,0-.22-.02-.32-.07s-.22-.07-.36-.07c-.15,0-.31.04-.47.12s-.31.2-.44.36c-.13.16-.24.34-.31.56-.08.21-.12.45-.12.71v2.64c0,.16-.05.3-.16.4-.11.11-.24.16-.39.16Z"/><path class="cls-1" d="m105.29,34.08c-.07-.1-.09-.22-.09-.36,0-.14.08-.25.23-.35.1-.07.21-.09.32-.08.11.01.22.07.32.17.21.23.43.41.69.54s.56.2.92.2c.15,0,.3-.03.45-.07.15-.04.29-.11.4-.22.11-.11.17-.26.17-.47,0-.18-.06-.33-.18-.43-.12-.11-.27-.2-.46-.27-.19-.07-.4-.14-.63-.2-.24-.07-.47-.14-.7-.22-.24-.08-.45-.19-.64-.31-.19-.13-.35-.29-.47-.5-.12-.21-.18-.46-.18-.76,0-.34.09-.64.29-.89.19-.25.44-.44.76-.58s.65-.21,1.01-.21c.22,0,.45.03.68.08.23.06.46.14.68.26.22.12.41.27.57.46.07.1.12.21.13.34.01.13-.05.25-.18.36-.09.07-.2.1-.32.09-.12-.01-.23-.05-.31-.13-.14-.18-.32-.31-.54-.41-.22-.1-.47-.14-.75-.14-.14,0-.29.02-.43.06-.15.04-.28.11-.38.21s-.15.25-.15.45c0,.18.06.33.18.44.12.11.28.2.48.27s.41.14.65.2c.23.06.45.13.68.21.22.08.43.19.61.31.18.13.33.29.44.49.11.2.17.46.17.76,0,.36-.1.67-.31.92s-.47.45-.79.58c-.32.13-.65.2-1.01.2-.42,0-.83-.08-1.25-.23-.41-.15-.76-.41-1.05-.79Z"/></svg>