<svg width="106" height="22" viewBox="0 0 106 22" fill="none" xmlns="http://www.w3.org/2000/svg">
<path d="M36.9086 2.61328C36.9086 2.86844 36.7713 2.99898 36.4966 2.99898H35.1112C34.8365 2.99898 34.7051 2.86844 34.7051 2.61328V0.471152C34.7051 0.215996 34.8424 0.0854492 35.1112 0.0854492L36.4966 0.0854492C36.7713 0.0854492 36.9086 0.215996 36.9086 0.471152V2.61328Z" fill="#122933"/>
<path d="M36.9086 14.3083C36.9086 14.5101 36.8131 14.6109 36.616 14.6109H35.0156C34.8066 14.6109 34.7051 14.5101 34.7051 14.3083V4.49959C34.7051 4.30971 34.8066 4.2207 35.0156 4.2207H36.616C36.8131 4.2207 36.9086 4.31564 36.9086 4.49959V14.3083Z" fill="#122933"/>
<path d="M85.1186 14.3083C85.1186 14.5101 85.0231 14.6109 84.826 14.6109H83.2256C83.0166 14.6109 82.915 14.5101 82.915 14.3083V4.49959C82.915 4.30971 83.0166 4.2207 83.2256 4.2207H84.826C85.0231 4.2207 85.1186 4.31564 85.1186 4.49959V14.3083Z" fill="#A1A67C"/>
<path d="M78.2143 9.52011C78.2143 8.92672 78.1963 8.39861 78.1665 7.92983C78.1366 7.46699 78.0351 7.06941 77.8739 6.74898C77.7126 6.42855 77.4678 6.17933 77.1334 6.01318C76.8049 5.84703 76.3451 5.76396 75.7599 5.76396C75.1746 5.76396 74.6969 5.84703 74.3685 6.01318C74.04 6.17933 73.7892 6.42855 73.628 6.74898C73.4667 7.06941 73.3712 7.46699 73.3354 7.92983C73.3055 8.39267 73.2876 8.92672 73.2876 9.52011C73.2876 10.1135 73.3055 10.6475 73.3354 11.1104C73.3652 11.5732 73.4667 11.9649 73.628 12.2853C73.7892 12.5998 74.034 12.8431 74.3685 13.0092C74.6969 13.1754 75.1627 13.2585 75.7599 13.2585C76.357 13.2585 76.799 13.1754 77.1334 13.0092C77.4618 12.8431 77.7126 12.5998 77.8739 12.2853C78.0351 11.9708 78.1306 11.5792 78.1665 11.1104C78.2023 10.6475 78.2143 10.1135 78.2143 9.52011ZM80.4835 9.52011C80.4835 10.2559 80.4357 10.9442 80.3402 11.591C80.2446 12.2378 80.0356 12.8015 79.7072 13.2822C79.3847 13.7688 78.907 14.1485 78.2799 14.4215C77.6529 14.7004 76.8109 14.8369 75.7658 14.8369C74.7208 14.8369 73.8788 14.7004 73.2518 14.4215C72.6247 14.1426 72.147 13.7628 71.8126 13.2822C71.4841 12.8015 71.2691 12.2378 71.1736 11.591C71.0781 10.9442 71.0303 10.2559 71.0303 9.52011C71.0303 8.78431 71.0781 8.09598 71.1736 7.44325C71.2691 6.79052 71.4841 6.2268 71.8126 5.74023C72.141 5.25958 72.6188 4.87981 73.2518 4.60092C73.8788 4.32203 74.7208 4.18555 75.7658 4.18555C76.8109 4.18555 77.6529 4.32203 78.2799 4.60092C78.907 4.87981 79.3847 5.25958 79.7072 5.74023C80.0297 6.2268 80.2387 6.79052 80.3402 7.44325C80.4357 8.09598 80.4835 8.78431 80.4835 9.52011Z" fill="#A1A67C"/>
<path d="M85.1186 2.61328C85.1186 2.86844 84.9813 2.99898 84.7066 2.99898H83.3211C83.0464 2.99898 82.915 2.86844 82.915 2.61328V0.471152C82.915 0.215996 83.0524 0.0854492 83.3211 0.0854492L84.7066 0.0854492C84.9813 0.0854492 85.1186 0.215996 85.1186 0.471152V2.61328Z" fill="#A1A67C"/>
<path d="M96.9357 14.3147C96.9357 14.5105 96.8402 14.6054 96.6431 14.6054H95.0367C94.8277 14.6054 94.7262 14.5105 94.7262 14.3147V7.35424C94.7262 6.74899 94.6068 6.32768 94.3679 6.10219C94.129 5.87671 93.717 5.76396 93.1317 5.76396C92.7675 5.76396 92.4211 5.7877 92.0807 5.82923C91.7463 5.87671 91.4417 5.92418 91.167 5.97758C90.8446 6.03099 90.54 6.09626 90.2534 6.1734V14.3206C90.2534 14.5164 90.1578 14.6114 89.9608 14.6114H88.3603C88.1513 14.6114 88.0498 14.5164 88.0498 14.3206V6.08439C88.0498 5.90638 88.0677 5.74616 88.1095 5.60968C88.1513 5.4732 88.217 5.35452 88.3126 5.25365C88.4081 5.15277 88.5395 5.05783 88.7127 4.97475C88.8799 4.89168 89.0949 4.80861 89.3516 4.73147C89.5965 4.65433 89.8831 4.58312 90.2116 4.51785C90.54 4.45257 90.8804 4.39917 91.2387 4.35169C91.597 4.30422 91.9493 4.26862 92.3136 4.23302C92.6779 4.20335 93.0123 4.18555 93.3228 4.18555C93.914 4.18555 94.4336 4.23302 94.8815 4.32203C95.3293 4.41104 95.6996 4.57125 96.0041 4.79674C96.3087 5.02222 96.5356 5.31892 96.6909 5.68682C96.8461 6.05472 96.9238 6.51756 96.9238 7.06941V14.3147H96.9357Z" fill="#A1A67C"/>
<path d="M32.3936 5.6389C32.3936 5.71604 32.3757 5.78131 32.3458 5.84065C32.316 5.89999 32.2383 5.92966 32.1189 5.92966C31.5098 5.92966 30.9544 5.95339 30.4587 6.0068C29.9571 6.0602 29.5212 6.13734 29.145 6.23822L29.145 14.3142C29.145 14.5101 29.0494 14.605 28.8524 14.605H27.2519C27.2042 14.605 27.1444 14.605 27.0608 14.5457C26.9832 14.4923 26.9414 14.4092 26.9414 14.3202L26.9414 6.07801C26.9414 5.68044 27.037 5.39561 27.2221 5.22946C27.4072 5.06331 27.7058 4.90903 28.1178 4.76662C28.3268 4.68948 28.5597 4.61827 28.8344 4.553C29.1091 4.48773 29.3838 4.43432 29.6765 4.38685C29.9691 4.33938 30.2617 4.30377 30.5603 4.26817C30.8589 4.2385 31.1395 4.2207 31.3963 4.2207H31.9995C32.0711 4.2207 32.101 4.2207 32.1786 4.24444C32.2562 4.26817 32.2682 4.28004 32.316 4.32751C32.3637 4.37498 32.3936 4.44026 32.3936 4.54113V5.6389Z" fill="#122933"/>
<path d="M105.249 14.2077C105.267 14.3264 105.195 14.4391 105.034 14.4866C104.854 14.54 104.556 14.6112 104.15 14.7061C103.744 14.8011 103.23 14.8426 102.621 14.8426C101.576 14.8426 100.794 14.6171 100.28 14.1602C99.7665 13.7033 99.5098 12.9438 99.5098 11.8816V0.743703C99.5098 0.559753 99.6113 0.447009 99.8203 0.405472L101.391 0.0969076C101.576 0.0672381 101.725 0.168117 101.713 0.363935V4.22689L104.675 4.22689C104.872 4.22689 104.968 4.32776 104.968 4.52358V5.60949C104.968 5.8053 104.872 5.90618 104.675 5.90618L101.719 5.90618V11.8935C101.719 12.3682 101.827 12.7005 102.054 12.8904C102.281 13.0802 102.645 13.1752 103.153 13.1752C103.451 13.1752 103.744 13.1515 104.036 13.098C104.329 13.0446 104.562 12.9972 104.747 12.9616C104.932 12.926 105.022 13.0268 105.04 13.1574C105.04 13.1574 105.249 14.178 105.255 14.2077" fill="#A1A67C"/>
<path d="M66.7019 9.49664C66.7019 8.65996 66.6542 7.99537 66.5586 7.50879C66.4631 7.02221 66.3138 6.64838 66.1107 6.39915C65.9077 6.14993 65.6569 5.98972 65.3523 5.91851C65.0478 5.8473 64.6955 5.8117 64.2953 5.8117C64.0386 5.8117 63.7698 5.8295 63.5071 5.87104C63.2383 5.91257 62.9935 5.95411 62.7606 6.00751C62.4859 6.06092 62.2232 6.11432 61.9604 6.1796V12.9917C62.1276 13.0451 62.3306 13.0866 62.5635 13.1282C62.7606 13.1697 62.9875 13.1994 63.2443 13.2231C63.5011 13.2469 63.7937 13.2647 64.1222 13.2647C64.5999 13.2647 65.006 13.2053 65.3404 13.0926C65.6688 12.9739 65.9376 12.7781 66.1466 12.4932C66.3556 12.2084 66.4989 11.8287 66.5825 11.3421C66.6661 10.8614 66.7079 10.2443 66.7079 9.49664M68.9772 9.52038C68.9772 10.3452 68.9175 11.0869 68.7921 11.7456C68.6666 12.4042 68.4457 12.962 68.1232 13.4189C67.8007 13.8758 67.3529 14.2259 66.7796 14.4752C66.2063 14.7185 65.4718 14.8431 64.576 14.8431C64.0206 14.8431 63.4951 14.8015 63.0055 14.7481C62.5098 14.6947 61.9903 14.5226 61.9843 14.5226C61.9843 14.5226 61.9783 14.5226 61.9723 14.5226V18.0177C61.9723 18.2135 61.8649 18.3975 61.6678 18.439L60.0256 18.7476C59.8345 18.7654 59.7568 18.6526 59.7568 18.4568V6.36355C59.7568 5.90071 59.8345 5.56248 59.9897 5.36072C60.145 5.15304 60.4496 4.97502 60.9034 4.82074C61.4588 4.63085 62.0858 4.47658 62.7785 4.36977C63.4712 4.26296 64.1401 4.20361 64.791 4.20361C65.7106 4.20361 66.4452 4.33416 67.0005 4.60119C67.5499 4.86821 67.9739 5.23611 68.2606 5.70489C68.5532 6.17367 68.7443 6.73738 68.8338 7.39604C68.9234 8.05471 68.9712 8.76677 68.9712 9.54411" fill="#A1A67C"/>
<path d="M47.6694 11.5251C47.6694 12.1363 47.5559 12.6407 47.329 13.0442C47.1021 13.4417 46.8214 13.7384 46.4571 14.0292C46.1048 14.3081 45.5315 14.587 45.018 14.6878C44.5044 14.7887 43.9669 14.8362 43.3936 14.8362C42.9637 14.8362 42.5576 14.8125 42.1694 14.759C41.7813 14.7056 41.4289 14.6463 41.1065 14.581C40.79 14.5098 40.5212 14.4446 40.3063 14.3733C40.0913 14.3021 39.9659 14.2665 39.8882 14.2369C39.8285 14.2131 39.7808 14.1953 39.733 14.1657C39.6553 14.1123 39.6315 14.047 39.6554 13.958L39.9539 12.7831C39.9778 12.6466 40.0495 12.5754 40.1689 12.5754C40.2107 12.5754 40.4376 12.6407 40.6287 12.7C40.8198 12.7534 41.0527 12.8127 41.3274 12.8661C41.6081 12.9195 41.9127 12.973 42.253 13.0145C42.5934 13.056 42.9398 13.0798 43.3041 13.0798C43.955 13.0798 44.4745 12.973 44.8687 12.7593C45.2628 12.5457 45.4599 12.1897 45.4599 11.6912C45.4599 11.3827 45.4061 11.1394 45.2926 10.9614C45.1852 10.7893 45.0239 10.6587 44.8269 10.5697C44.6238 10.4807 44.385 10.4154 44.1043 10.3739C43.8236 10.3324 43.525 10.2849 43.2025 10.2315C42.9278 10.1959 42.6054 10.1366 42.2232 10.0653C41.841 9.98821 41.4707 9.85766 41.1124 9.66184C40.7541 9.46603 40.4556 9.18713 40.2107 8.81923C39.9659 8.45133 39.8405 7.94695 39.8405 7.30609C39.8405 6.66523 39.9719 6.15492 40.2406 5.75735C40.5093 5.35978 40.8318 5.04528 41.2319 4.80199C41.62 4.56464 42.0978 4.36882 42.5815 4.28575C43.0592 4.20267 43.537 4.16113 43.9669 4.16113C44.7851 4.16113 45.4897 4.25607 46.063 4.35102C46.6423 4.45189 47.12 4.51717 47.2573 4.57651C47.4007 4.63585 47.3529 4.79606 47.323 4.95034L47.12 6.00657C47.1081 6.11931 47.0364 6.17866 46.905 6.17272C46.905 6.17272 46.6602 6.13712 46.487 6.10745C46.3138 6.07778 46.0988 6.04217 45.848 6.00657C45.5972 5.97097 45.3285 5.93536 45.0418 5.9057C44.7552 5.87603 44.4805 5.85822 44.2058 5.85822C43.9311 5.85822 43.6683 5.87603 43.4056 5.91163C43.1488 5.94723 42.9159 6.01844 42.7188 6.11932C42.5218 6.22019 42.3546 6.35074 42.2351 6.51688C42.1097 6.6771 42.05 6.89072 42.05 7.15775C42.05 7.44851 42.1157 7.67399 42.2471 7.83421C42.3785 7.99442 42.5457 8.12497 42.7606 8.20804C42.9756 8.29705 43.2145 8.36232 43.4892 8.40386C43.7639 8.4454 44.0326 8.48693 44.3073 8.52847C44.7074 8.58781 45.1135 8.66495 45.5136 8.75396C45.9137 8.84297 46.272 8.98538 46.5945 9.18713C46.911 9.38888 47.1737 9.67371 47.3708 10.0357C47.5739 10.4036 47.6754 10.8961 47.6754 11.5073" fill="#122933"/>
<path d="M57.8927 14.3386C57.9166 14.3802 57.9285 14.398 57.9285 14.4336C57.9285 14.4692 57.9106 14.5107 57.8807 14.5523C57.8509 14.5938 57.7971 14.6116 57.7374 14.6116L55.504 14.6116C55.4144 14.6116 55.3368 14.576 55.2711 14.4988L52.3927 10.3273H51.8433V14.3268C51.8433 14.5167 51.7478 14.6116 51.5507 14.6116H49.9443C49.7353 14.6116 49.6338 14.5166 49.6338 14.3208V0.74411C49.6338 0.548292 49.7293 0.435546 49.9264 0.394009L51.5089 0.0854492L51.5686 0.0854492C51.7478 0.0854492 51.8374 0.18039 51.8374 0.376208V8.77265H52.3868L55.0083 5.01057L55.498 4.31037C55.5637 4.23323 55.6354 4.21543 55.713 4.21543H57.7314C57.8628 4.21543 57.9703 4.2985 57.9285 4.42312C57.9166 4.46465 57.1462 5.60396 57.1462 5.60396L54.3753 9.43725L57.8927 14.3327V14.3386Z" fill="#122933"/>
<path d="M12.3955 8.35992L23.5758 10.3848L17.0003 8.17222L18.2959 7.24512L12.3955 8.35992Z" fill="#A1A67C"/>
<path d="M13.3676 11.3503L5.83301 19.8032L11.2044 15.381L11.3989 16.9836L13.3676 11.3503Z" fill="#A1A67C"/>
<path d="M10.2081 10.6265L6.69431 0L7.80712 6.7661L6.31934 6.13364L10.2081 10.6265Z" fill="#A1A67C"/>
<path d="M17.4993 3.14062L11.9092 8.21235L13.9937 7.47059L17.4993 3.14062Z" fill="#A1A67C"/>
<path d="M4.37402 14.7313L12.3947 12.0747L10.4994 13.7068L4.37402 14.7313Z" fill="#122933"/>
<path d="M11.9101 1.20801L10.1543 9.41937L9.72266 6.97368L11.9101 1.20801Z" fill="#122933"/>
<path d="M19.9305 14.4908L13.3682 8.93604L15.8144 9.74389L19.9305 14.4908Z" fill="#122933"/>
<path d="M15.3126 18.3545L13.7929 10.8677L13.3682 13.0867L15.3126 18.3545Z" fill="#A1A67C"/>
<path d="M3.16016 8.93604L10.4517 11.3511L8.73781 9.8878L3.16016 8.93604Z" fill="#A1A67C"/>
<path d="M13.8545 9.6604L16.8506 21.2529L16.6256 14.3045L18.9586 14.6185L13.8545 9.6604Z" fill="#122933"/>
<path d="M11.6664 11.9094L0 8.69458L6.19011 11.95L4.72056 13.7663L11.6664 11.9094Z" fill="#122933"/>
<path d="M10.6953 8.93676L19.4451 0.483887L13.4153 4.16323L12.5247 1.9448L10.6953 8.93676Z" fill="#122933"/>
</svg>
