<svg id="svg5" height="512" viewBox="0 0 180.62202 180.62202" width="512" xmlns="http://www.w3.org/2000/svg" xmlns:inkscape="http://www.inkscape.org/namespaces/inkscape" xmlns:sodipodi="http://sodipodi.sourceforge.net/DTD/sodipodi-0.dtd" xmlns:svg="http://www.w3.org/2000/svg" inkscape:version="1.2 (1:1.2+202206011327+fc4e4096c5)" sodipodi:docname="close.svg"><g id="layer1" transform="translate(1047.834 414.051)" inkscape:label="Layer 1" inkscape:groupmode="layer"><path id="path1499" d="m-1006.616-383.7396a10.909424 10.909195 0 0 0 -7.7122 3.19645 10.909424 10.909195 0 0 0 0 15.4256l41.37865 41.37917-41.37865 41.37775a10.909424 10.909195 0 0 0 0 15.42699 10.909424 10.909195 0 0 0 15.42594 0l41.3801-41.37917 41.37832 41.37917a10.909424 10.909195 0 0 0 15.426 0 10.909424 10.909195 0 0 0 0-15.42699l-41.37878-41.37775 41.37878-41.37917a10.909424 10.909195 0 0 0 0-15.4256 10.909424 10.909195 0 0 0 -7.71222-3.19645 10.909424 10.909195 0 0 0 -7.71378 3.19645l-41.37832 41.37918-41.3801-41.37918a10.909424 10.909195 0 0 0 -7.71374-3.19645z"/></g></svg>